# Created by FreeCAD <http://www.freecadweb.org>
v 0.000000 -10.000000 0.000000
v 0.000000 0.000000 0.000000
v 0.000000 0.000000 10.000000
v 0.000000 -10.000000 10.000000
v -10.000000 -10.000000 10.000000
v -10.000000 -10.000000 0.000000
vn 1.000000 0.000000 0.000000
vn 1.000000 0.000000 0.000000
vn 0.000000 -1.000000 0.000000
vn 0.000000 -1.000000 0.000000
vn -0.707107 0.707107 0.000000
vn -0.707107 0.707107 0.000000
vn 0.000000 -0.000000 -1.000000
vn 0.000000 -0.000000 1.000000
f 1//1 2//1 3//1
f 1//2 3//2 4//2
f 1//3 4//3 5//3
f 6//4 1//4 5//4
f 2//5 6//5 5//5
f 2//6 5//6 3//6
f 2//7 1//7 6//7
f 4//8 3//8 5//8
