# Created by FreeCAD <http://www.freecadweb.org>
v -7.000000 0.500000 -5.000000
v 33.000000 0.500000 -5.000000
v -7.000000 -0.500000 -5.000000
v 33.000000 -0.500000 -5.000000
v 33.000000 0.500000 35.000000
v 33.000000 -0.500000 35.000000
v 9.000000 0.500000 35.000000
v 9.000000 -0.500000 35.000000
v 9.000000 0.500000 5.000000
v 9.000000 -0.500000 5.000000
v 2.500000 0.500000 5.000000
v 2.500000 -0.500000 5.000000
v 2.500000 0.500000 10.000000
v 2.500000 -0.500000 10.000000
v 7.000000 0.500000 10.000000
v 7.000000 -0.500000 10.000000
v 7.000000 0.500000 15.000000
v 7.000000 -0.500000 15.000000
v 2.500000 0.500000 15.000000
v 2.500000 -0.500000 15.000000
v 2.500000 0.500000 20.000000
v 2.500000 -0.500000 20.000000
v 7.000000 0.500000 20.000000
v 7.000000 -0.500000 20.000000
v 7.000000 0.500000 25.000000
v 7.000000 -0.500000 25.000000
v 2.500000 0.500000 25.000000
v 2.500000 -0.500000 25.000000
v 2.500000 0.500000 30.000000
v 2.500000 -0.500000 30.000000
v 7.000000 0.500000 30.000000
v 7.000000 -0.500000 30.000000
v 7.000000 0.500000 35.000000
v 7.000000 -0.500000 35.000000
v -7.000000 0.500000 35.000000
v -7.000000 -0.500000 35.000000
v -7.000000 0.500000 30.000000
v -7.000000 -0.500000 30.000000
v -2.500000 0.500000 30.000000
v -2.500000 -0.500000 30.000000
v -2.500000 0.500000 25.000000
v -2.500000 -0.500000 25.000000
v -7.000000 0.500000 25.000000
v -7.000000 -0.500000 25.000000
v -7.000000 0.500000 20.000000
v -7.000000 -0.500000 20.000000
v -2.500000 0.500000 20.000000
v -2.500000 -0.500000 20.000000
v -2.500000 0.500000 15.000000
v -2.500000 -0.500000 15.000000
v -7.000000 0.500000 15.000000
v -7.000000 -0.500000 15.000000
v -7.000000 0.500000 10.000000
v -7.000000 -0.500000 10.000000
v -2.500000 0.500000 10.000000
v -2.500000 -0.500000 10.000000
v -2.500000 0.500000 5.000000
v -2.500000 -0.500000 5.000000
v -7.000000 0.500000 5.000000
v -7.000000 -0.500000 5.000000
vn 0.000000 0.000000 -1.000000
vn 0.000000 0.000000 -1.000000
vn 1.000000 0.000000 -0.000000
vn 1.000000 0.000000 0.000000
vn 0.000000 0.000000 1.000000
vn 0.000000 0.000000 1.000000
vn -1.000000 -0.000000 -0.000000
vn -1.000000 0.000000 0.000000
vn 0.000000 0.000000 1.000000
vn 0.000000 0.000000 1.000000
vn 1.000000 0.000000 -0.000000
vn 1.000000 0.000000 0.000000
vn 0.000000 0.000000 -1.000000
vn 0.000000 0.000000 -1.000000
vn 1.000000 0.000000 -0.000000
vn 1.000000 0.000000 0.000000
vn 0.000000 0.000000 1.000000
vn 0.000000 0.000000 1.000000
vn 1.000000 0.000000 -0.000000
vn 1.000000 0.000000 0.000000
vn 0.000000 0.000000 -1.000000
vn 0.000000 0.000000 -1.000000
vn 1.000000 0.000000 -0.000000
vn 1.000000 0.000000 0.000000
vn 0.000000 0.000000 1.000000
vn 0.000000 0.000000 1.000000
vn 1.000000 0.000000 -0.000000
vn 1.000000 0.000000 0.000000
vn 0.000000 0.000000 -1.000000
vn 0.000000 0.000000 -1.000000
vn 1.000000 0.000000 -0.000000
vn 1.000000 0.000000 0.000000
vn 0.000000 0.000000 1.000000
vn 0.000000 0.000000 1.000000
vn -1.000000 -0.000000 -0.000000
vn -1.000000 0.000000 0.000000
vn 0.000000 0.000000 -1.000000
vn 0.000000 0.000000 -1.000000
vn -1.000000 -0.000000 -0.000000
vn -1.000000 0.000000 0.000000
vn 0.000000 0.000000 1.000000
vn 0.000000 0.000000 1.000000
vn -1.000000 -0.000000 -0.000000
vn -1.000000 0.000000 0.000000
vn 0.000000 0.000000 -1.000000
vn 0.000000 0.000000 -1.000000
vn -1.000000 -0.000000 -0.000000
vn -1.000000 0.000000 0.000000
vn 0.000000 0.000000 1.000000
vn 0.000000 0.000000 1.000000
vn -1.000000 -0.000000 -0.000000
vn -1.000000 0.000000 0.000000
vn 0.000000 0.000000 -1.000000
vn 0.000000 0.000000 -1.000000
vn -1.000000 -0.000000 -0.000000
vn -1.000000 0.000000 0.000000
vn 0.000000 0.000000 1.000000
vn 0.000000 0.000000 1.000000
vn -1.000000 -0.000000 -0.000000
vn -1.000000 0.000000 0.000000
vn 0.000000 1.000000 0.000000
vn 0.000000 1.000000 0.000000
vn 0.000000 1.000000 0.000000
vn 0.000000 1.000000 0.000000
vn 0.000000 1.000000 0.000000
vn 0.000000 1.000000 0.000000
vn 0.000000 1.000000 0.000000
vn 0.000000 1.000000 0.000000
vn 0.000000 1.000000 0.000000
vn 0.000000 1.000000 0.000000
vn 0.000000 1.000000 0.000000
vn 0.000000 1.000000 0.000000
vn 0.000000 1.000000 0.000000
vn 0.000000 1.000000 0.000000
vn 0.000000 1.000000 0.000000
vn 0.000000 1.000000 0.000000
vn 0.000000 1.000000 0.000000
vn 0.000000 1.000000 0.000000
vn 0.000000 1.000000 0.000000
vn 0.000000 1.000000 0.000000
vn 0.000000 1.000000 0.000000
vn 0.000000 1.000000 0.000000
vn 0.000000 1.000000 0.000000
vn 0.000000 1.000000 0.000000
vn -0.000000 1.000000 0.000000
vn 0.000000 1.000000 0.000000
vn -0.000000 1.000000 0.000000
vn 0.000000 1.000000 -0.000000
vn 0.000000 -1.000000 0.000000
vn 0.000000 -1.000000 0.000000
vn 0.000000 -1.000000 0.000000
vn 0.000000 -1.000000 0.000000
vn 0.000000 -1.000000 0.000000
vn 0.000000 -1.000000 0.000000
vn 0.000000 -1.000000 0.000000
vn 0.000000 -1.000000 0.000000
vn 0.000000 -1.000000 0.000000
vn 0.000000 -1.000000 0.000000
vn 0.000000 -1.000000 0.000000
vn 0.000000 -1.000000 0.000000
vn 0.000000 -1.000000 0.000000
vn 0.000000 -1.000000 0.000000
vn 0.000000 -1.000000 0.000000
vn 0.000000 -1.000000 0.000000
vn 0.000000 -1.000000 0.000000
vn 0.000000 -1.000000 0.000000
vn 0.000000 -1.000000 0.000000
vn 0.000000 -1.000000 0.000000
vn 0.000000 -1.000000 0.000000
vn 0.000000 -1.000000 0.000000
vn 0.000000 -1.000000 0.000000
vn 0.000000 -1.000000 0.000000
vn -0.000000 -1.000000 0.000000
vn 0.000000 -1.000000 0.000000
vn 0.000000 -1.000000 0.000000
vn 0.000000 -1.000000 0.000000
f 1//1 2//1 3//1
f 3//2 2//2 4//2
f 2//3 5//3 4//3
f 4//4 5//4 6//4
f 5//5 7//5 6//5
f 6//6 7//6 8//6
f 7//7 9//7 8//7
f 8//8 9//8 10//8
f 9//9 11//9 10//9
f 10//10 11//10 12//10
f 11//11 13//11 12//11
f 12//12 13//12 14//12
f 13//13 15//13 14//13
f 14//14 15//14 16//14
f 15//15 17//15 16//15
f 16//16 17//16 18//16
f 17//17 19//17 18//17
f 18//18 19//18 20//18
f 19//19 21//19 20//19
f 20//20 21//20 22//20
f 21//21 23//21 22//21
f 22//22 23//22 24//22
f 23//23 25//23 24//23
f 24//24 25//24 26//24
f 25//25 27//25 26//25
f 26//26 27//26 28//26
f 27//27 29//27 28//27
f 28//28 29//28 30//28
f 29//29 31//29 30//29
f 30//30 31//30 32//30
f 31//31 33//31 32//31
f 32//32 33//32 34//32
f 33//33 35//33 34//33
f 34//34 35//34 36//34
f 35//35 37//35 36//35
f 36//36 37//36 38//36
f 37//37 39//37 38//37
f 38//38 39//38 40//38
f 39//39 41//39 40//39
f 40//40 41//40 42//40
f 41//41 43//41 42//41
f 42//42 43//42 44//42
f 43//43 45//43 44//43
f 44//44 45//44 46//44
f 45//45 47//45 46//45
f 46//46 47//46 48//46
f 47//47 49//47 48//47
f 48//48 49//48 50//48
f 49//49 51//49 50//49
f 50//50 51//50 52//50
f 51//51 53//51 52//51
f 52//52 53//52 54//52
f 53//53 55//53 54//53
f 54//54 55//54 56//54
f 55//55 57//55 56//55
f 56//56 57//56 58//56
f 57//57 59//57 58//57
f 58//58 59//58 60//58
f 59//59 1//59 60//59
f 60//60 1//60 3//60
f 35//61 39//61 37//61
f 33//62 29//62 35//62
f 35//63 29//63 39//63
f 33//64 31//64 29//64
f 39//65 27//65 41//65
f 29//66 27//66 39//66
f 41//67 47//67 43//67
f 43//68 47//68 45//68
f 25//69 21//69 27//69
f 27//70 21//70 41//70
f 41//71 21//71 47//71
f 25//72 23//72 21//72
f 47//73 19//73 49//73
f 21//74 19//74 47//74
f 49//75 55//75 51//75
f 51//76 55//76 53//76
f 19//77 13//77 49//77
f 49//78 13//78 55//78
f 17//79 15//79 19//79
f 19//80 15//80 13//80
f 55//81 11//81 57//81
f 13//82 11//82 55//82
f 57//83 1//83 59//83
f 11//84 1//84 57//84
f 11//85 9//85 1//85
f 9//86 2//86 1//86
f 9//87 7//87 2//87
f 2//88 7//88 5//88
f 40//89 36//89 38//89
f 30//90 34//90 36//90
f 30//91 36//91 40//91
f 32//92 34//92 30//92
f 28//93 40//93 42//93
f 28//94 30//94 40//94
f 48//95 42//95 44//95
f 48//96 44//96 46//96
f 22//97 26//97 28//97
f 22//98 28//98 42//98
f 22//99 42//99 48//99
f 24//100 26//100 22//100
f 20//101 48//101 50//101
f 20//102 22//102 48//102
f 56//103 50//103 52//103
f 56//104 52//104 54//104
f 14//105 20//105 50//105
f 14//106 50//106 56//106
f 16//107 18//107 20//107
f 16//108 20//108 14//108
f 12//109 56//109 58//109
f 12//110 14//110 56//110
f 3//111 58//111 60//111
f 3//112 12//112 58//112
f 10//113 12//113 3//113
f 4//114 10//114 3//114
f 8//115 10//115 4//115
f 8//116 4//116 6//116
