# Created by FreeCAD <http://www.freecadweb.org>
v -7.000000 0.500000 -5.000000
v 33.000000 -0.500000 -5.000000
v -7.000000 -0.500000 -5.000000
v 33.000000 0.500000 -5.000000
v 33.000000 -0.500000 35.000000
v 33.000000 0.500000 35.000000
v 9.000000 0.500000 35.000000
v 9.000000 -0.500000 35.000000
v 9.000000 0.500000 5.000000
v 9.000000 -0.500000 5.000000
v 7.000000 0.500000 5.000000
v 7.000000 -0.500000 5.000000
v 7.000000 0.500000 35.000000
v 7.000000 -0.500000 35.000000
v -7.000000 0.500000 35.000000
v -7.000000 -0.500000 35.000000
v -7.000000 0.500000 30.000000
v -7.000000 -0.500000 30.000000
v -2.000000 0.500000 30.000000
v -2.000000 -0.500000 30.000000
v -2.000000 0.500000 25.000000
v -2.000000 -0.500000 25.000000
v -7.000000 0.500000 25.000000
v -7.000000 -0.500000 25.000000
v -7.000000 0.500000 20.000000
v -7.000000 -0.500000 20.000000
v -2.000000 0.500000 20.000000
v -2.000000 -0.500000 20.000000
v -2.000000 0.500000 15.000000
v -2.000000 -0.500000 15.000000
v -7.000000 0.500000 15.000000
v -7.000000 -0.500000 15.000000
v -7.000000 0.500000 10.000000
v -7.000000 -0.500000 10.000000
v -2.000000 0.500000 10.000000
v -2.000000 -0.500000 10.000000
v -2.000000 0.500000 5.000000
v -2.000000 -0.500000 5.000000
v -7.000000 0.500000 5.000000
v -7.000000 -0.500000 5.000000
vn 0.000000 0.000000 -1.000000
vn 0.000000 0.000000 -1.000000
vn 1.000000 0.000000 0.000000
vn 1.000000 0.000000 -0.000000
vn 0.000000 0.000000 1.000000
vn 0.000000 0.000000 1.000000
vn -1.000000 -0.000000 -0.000000
vn -1.000000 0.000000 0.000000
vn 0.000000 0.000000 1.000000
vn 0.000000 0.000000 1.000000
vn 1.000000 0.000000 -0.000000
vn 1.000000 0.000000 0.000000
vn 0.000000 0.000000 1.000000
vn 0.000000 0.000000 1.000000
vn -1.000000 -0.000000 -0.000000
vn -1.000000 0.000000 0.000000
vn 0.000000 0.000000 -1.000000
vn 0.000000 0.000000 -1.000000
vn -1.000000 -0.000000 -0.000000
vn -1.000000 0.000000 0.000000
vn 0.000000 0.000000 1.000000
vn 0.000000 0.000000 1.000000
vn -1.000000 -0.000000 -0.000000
vn -1.000000 0.000000 0.000000
vn 0.000000 0.000000 -1.000000
vn 0.000000 0.000000 -1.000000
vn -1.000000 -0.000000 -0.000000
vn -1.000000 0.000000 0.000000
vn 0.000000 0.000000 1.000000
vn 0.000000 0.000000 1.000000
vn -1.000000 -0.000000 -0.000000
vn -1.000000 0.000000 0.000000
vn 0.000000 0.000000 -1.000000
vn 0.000000 0.000000 -1.000000
vn -1.000000 -0.000000 -0.000000
vn -1.000000 0.000000 0.000000
vn 0.000000 0.000000 1.000000
vn 0.000000 0.000000 1.000000
vn -1.000000 -0.000000 -0.000000
vn -1.000000 0.000000 0.000000
vn 0.000000 1.000000 0.000000
vn -0.000000 1.000000 0.000000
vn 0.000000 1.000000 0.000000
vn 0.000000 1.000000 0.000000
vn 0.000000 1.000000 0.000000
vn 0.000000 1.000000 0.000000
vn 0.000000 1.000000 0.000000
vn 0.000000 1.000000 0.000000
vn 0.000000 1.000000 0.000000
vn -0.000000 1.000000 0.000000
vn 0.000000 1.000000 0.000000
vn 0.000000 1.000000 0.000000
vn -0.000000 1.000000 0.000000
vn 0.000000 1.000000 0.000000
vn 0.000000 1.000000 0.000000
vn 0.000000 1.000000 0.000000
vn 0.000000 1.000000 0.000000
vn 0.000000 1.000000 0.000000
vn 0.000000 -1.000000 0.000000
vn -0.000000 -1.000000 0.000000
vn 0.000000 -1.000000 0.000000
vn 0.000000 -1.000000 0.000000
vn 0.000000 -1.000000 0.000000
vn 0.000000 -1.000000 0.000000
vn 0.000000 -1.000000 0.000000
vn 0.000000 -1.000000 0.000000
vn 0.000000 -1.000000 0.000000
vn -0.000000 -1.000000 0.000000
vn 0.000000 -1.000000 0.000000
vn 0.000000 -1.000000 0.000000
vn -0.000000 -1.000000 0.000000
vn 0.000000 -1.000000 0.000000
vn 0.000000 -1.000000 0.000000
vn 0.000000 -1.000000 0.000000
vn 0.000000 -1.000000 0.000000
vn 0.000000 -1.000000 0.000000
f 1//1 2//1 3//1
f 1//2 4//2 2//2
f 4//3 5//3 2//3
f 4//4 6//4 5//4
f 6//5 7//5 5//5
f 5//6 7//6 8//6
f 7//7 9//7 8//7
f 8//8 9//8 10//8
f 9//9 11//9 10//9
f 10//10 11//10 12//10
f 11//11 13//11 12//11
f 12//12 13//12 14//12
f 13//13 15//13 14//13
f 14//14 15//14 16//14
f 15//15 17//15 16//15
f 16//16 17//16 18//16
f 17//17 19//17 18//17
f 18//18 19//18 20//18
f 19//19 21//19 20//19
f 20//20 21//20 22//20
f 21//21 23//21 22//21
f 22//22 23//22 24//22
f 23//23 25//23 24//23
f 24//24 25//24 26//24
f 25//25 27//25 26//25
f 26//26 27//26 28//26
f 27//27 29//27 28//27
f 28//28 29//28 30//28
f 29//29 31//29 30//29
f 30//30 31//30 32//30
f 31//31 33//31 32//31
f 32//32 33//32 34//32
f 33//33 35//33 34//33
f 34//34 35//34 36//34
f 35//35 37//35 36//35
f 36//36 37//36 38//36
f 37//37 39//37 38//37
f 38//38 39//38 40//38
f 39//39 1//39 40//39
f 40//40 1//40 3//40
f 15//41 19//41 17//41
f 15//42 13//42 19//42
f 13//43 21//43 19//43
f 21//44 27//44 23//44
f 23//45 27//45 25//45
f 29//46 35//46 31//46
f 31//47 35//47 33//47
f 37//48 1//48 39//48
f 35//49 11//49 37//49
f 37//50 11//50 1//50
f 29//51 11//51 35//51
f 6//52 9//52 7//52
f 11//53 9//53 1//53
f 6//54 4//54 9//54
f 9//55 4//55 1//55
f 13//56 11//56 21//56
f 21//57 11//57 27//57
f 27//58 11//58 29//58
f 20//59 16//59 18//59
f 14//60 16//60 20//60
f 22//61 14//61 20//61
f 28//62 22//62 24//62
f 28//63 24//63 26//63
f 36//64 30//64 32//64
f 36//65 32//65 34//65
f 3//66 38//66 40//66
f 12//67 36//67 38//67
f 12//68 38//68 3//68
f 12//69 30//69 36//69
f 10//70 5//70 8//70
f 10//71 12//71 3//71
f 2//72 5//72 10//72
f 2//73 10//73 3//73
f 12//74 14//74 22//74
f 12//75 22//75 28//75
f 12//76 28//76 30//76
